<svg viewBox="0 0 24.5928 21.985" xmlns="http://www.w3.org/2000/svg">
    <g transform="translate(-.918786 -.641)">
        <path d="m24.762 12.167a0.756 0.756 0 0 1-0.307-0.065l-6.438-2.883a0.751 0.751 0 0 1 0-1.37l6.438-2.873a0.752 0.752 0 0 1 0.991 0.379 0.752 0.752 0 0 1-0.38 0.991l-4.905 2.189 4.906 2.197a0.75 0.75 0 0 1-0.305 1.435z" fill="#67bece"/>
        <path d="m15.988 22.626c-7.078 0-13.266-4.778-15.045-11.62a0.749714 0.749714 0 1 1 1.451-0.378 14.044 14.044 0 0 0 13.594 10.498 0.75 0.75 0 0 1 0 1.5z" fill="#3f54a3"/>
        <path d="m13.404 16.398a0.75 0.75 0 0 1-0.75-0.75v-14.257a0.75 0.75 0 0 1 1.5 0v14.257a0.75 0.75 0 0 1-0.75 0.75z" fill="#67bece"/>
    </g>
</svg>
